{"title":"Sherlock.S03.Complete.1080p.BluRay.x264-SHORTBREHD","uid":9618254,"size":21122711671,"categoryP":"video","categoryS":"hd___tv_shows","magnet":"?xt=urn:btih:ea376fc04d647c34c5475cba9663d2f4cfe8e739&amp;dn=Sherlock.S03.Complete.1080p.BluRay.x264-SHORTBREHD&amp;tr=udp%3A%2F%2Ftracker.openbittorrent.com%3A80&amp;tr=udp%3A%2F%2Fopen.demonii.com%3A1337&amp;tr=udp%3A%2F%2Ftracker.coppersurfer.tk%3A6969&amp;tr=udp%3A%2F%2Fexodus.desync.com%3A6969","seeders":8,"leechers":8,"uploader":"the.HH","files":3,"time":1392453161,"description":"[center][code]\nSherlock - Season 03 1080p Bluray x264 - SHORTBREHD\n\nSpecs:\n\nRELEASE DATE: 20/01/2014\nAiR YEAR: 2014\nGENRE: Drama\nRUNTiME: ~90mins\nViDEO: 1920x1080\nAUDiO: 1509Kbps/5.1/DTS\nSUBTiTLES: English\nImDB: http://www.imdb.com/title/tt1475582/\n\n\nMediaInfo:\n\nGeneral\nComplete name : sherlock.s03e01.1080p.bluray.x264-shortbrehd.mkv\nFormat : Matroska\nFormat version : Version 2\nFile size : 6.56 GiB\nDuration : 1h 26mn\nOverall bit rate : 10.9 Mbps\nWriting application : mkvmerge v4.1.1 ('Bouncin' Back') built on Jul 3 2010 22:54:08\nWriting library : libebml v1.0.0 + libmatroska v1.0\n\nVideo\nID : 1\nFormat : AVC\nFormat/Info : Advanced Video Codec\nFormat profile : &lt;a class=&quot;__cf_email__&quot; href=&quot;/cdn-cgi/l/email-protection&quot; data-cfemail=&quot;b5fddcd2ddf5f9819b84&quot;&gt;[email&amp;#160;protected]&lt;/a&gt;&lt;script cf-hash='f9e31' type=&quot;text/javascript&quot;&gt;\n/* &lt;![CDATA[ */!function(){try{var t=&quot;currentScript&quot;in document?document.currentScript:function(){for(var t=document.getElementsByTagName(&quot;script&quot;),e=t.length;e--;)if(t[e].getAttribute(&quot;cf-hash&quot;))return t[e]}();if(t&amp;&amp;t.previousSibling){var e,r,n,i,c=t.previousSibling,a=c.getAttribute(&quot;data-cfemail&quot;);if(a){for(e=&quot;&quot;,r=parseInt(a.substr(0,2),16),n=2;a.length-n;n+=2)i=parseInt(a.substr(n,2),16)^r,e+=String.fromCharCode(i);e=document.createTextNode(e),c.parentNode.replaceChild(e,c)}}}catch(u){}}();/* ]]&gt; */&lt;/script&gt;\nFormat settings, CABAC : Yes\nFormat settings, ReFrames : 4 frames\nCodec ID : V_MPEG4/ISO/AVC\nDuration : 1h 26mn\nBit rate : 9 346 Kbps\nWidth : 1 920 pixels\nHeight : 1 080 pixels\nDisplay aspect ratio : 16:9\nFrame rate mode : Constant\nFrame rate : 25.000 fps\nColor space : YUV\nChroma subsampling : 4:2:0\nBit depth : 8 bits\nScan type : Progressive\nBits/(Pixel*Frame) : 0.180\nStream size : 5.51 GiB (84%)\nWriting library : x264 core 140 r2377 1ca7bb9\n\nLanguage : English\nDefault : Yes\nForced : No\n\nAudio\nID : 2\nFormat : DTS\nFormat/Info : Digital Theater Systems\nMode : 16\nFormat settings, Endianness : Big\nCodec ID : A_DTS\nDuration : 1h 26mn\nBit rate mode : Constant\nBit rate : 1 509 Kbps\nChannel(s) : 6 channels\nChannel positions : Front: L C R, Side: L R, LFE\nSampling rate : 48.0 KHz\nBit depth : 24 bits\nCompression mode : Lossy\nStream size : 933 MiB (14%)\nLanguage : English\nDefault : Yes\nForced : No\n\nMenu\n00:00:00.000 : en:00:00:00.000\n00:10:44.680 : en:00:10:44.680\n00:17:05.600 : en:00:17:05.600\n00:31:26.320 : en:00:31:26.320\n00:43:55.680 : en:00:43:55.680\n00:55:39.480 : en:00:55:39.480\n01:02:21.760 : en:01:02:21.760\n01:12:02.760 : en:01:12:02.760\n\n\n[/code]\n\n\n[i]Enjoy![/i]\n[IMG]http://i979.photobucket.com/albums/ae273/DethHolly/the_zps6c224a2e.png[/IMG]\n[img]http://cdn.secureboxes.net/banner/sbibt.jpg[/img][/center]","torrent":{"xt":"urn:btih:ea376fc04d647c34c5475cba9663d2f4cfe8e739","amp;dn":"Sherlock.S03.Complete.1080p.BluRay.x264-SHORTBREHD","amp;tr":["udp%3A%2F%2Ftracker.openbittorrent.com%3A80","udp%3A%2F%2Fopen.demonii.com%3A1337","udp%3A%2F%2Ftracker.coppersurfer.tk%3A6969","udp%3A%2F%2Fexodus.desync.com%3A6969"],"infoHash":"ea376fc04d647c34c5475cba9663d2f4cfe8e739","infoHashBuffer":{"type":"Buffer","data":[234,55,111,192,77,100,124,52,197,71,92,186,150,99,210,244,207,232,231,57]},"announce":[],"urlList":[]}}